<svg width="122" height="48" viewBox="0 0 122 48" fill="none" xmlns="http://www.w3.org/2000/svg">
<g clip-path="url(#clip0_17_2625)">
<path d="M38.3252 32.4263L39.7933 28.9949C41.4008 30.1853 43.4975 30.8154 45.5946 30.8154C47.1324 30.8154 48.1108 30.2204 48.1108 29.3101C48.0757 26.7889 38.8495 28.7498 38.7793 22.4112C38.7442 19.1897 41.6103 16.7036 45.6648 16.7036C48.0757 16.7036 50.4877 17.2991 52.1999 18.6649L50.828 22.1696C49.2526 21.1566 47.3068 20.4503 45.4548 20.4503C44.1967 20.4503 43.3576 21.0453 43.3576 21.8162C43.3927 24.3023 52.6896 22.9364 52.7944 28.9949C52.7944 32.2865 49.998 34.5977 46.0137 34.5977C43.0784 34.5977 40.3873 33.8975 38.3247 32.4263H38.3252ZM96.7832 27.7523C96.4127 28.4108 95.8736 28.9588 95.2214 29.3402C94.5691 29.7216 93.8272 29.9226 93.0716 29.9227C90.7168 29.9227 88.8081 28.0099 88.8081 25.6506C88.8081 23.2913 90.7168 21.3786 93.0716 21.3786C93.8272 21.3787 94.5691 21.5797 95.2214 21.9611C95.8736 22.3425 96.4127 22.8905 96.7832 23.549L100.865 21.2834C99.336 18.5511 96.4198 16.7036 93.0716 16.7036C88.1399 16.7036 84.1421 20.709 84.1421 25.6506C84.1421 30.5918 88.1399 34.5977 93.0716 34.5977C96.4198 34.5977 99.336 32.7501 100.865 30.0179L96.7832 27.7523ZM55.4429 34.2473H60.5455V9.25574H55.4434L55.4429 34.2473ZM103.442 9.25574V34.2473H108.544V26.7599L114.591 34.2473H121.113L113.424 25.3524L120.553 17.0524H114.311L108.544 23.953V9.25574H103.442ZM76.2657 17.0534V19.085C75.4271 17.684 73.365 16.7036 71.1982 16.7036C66.7247 16.7036 63.195 20.6608 63.195 25.6331C63.195 30.6053 66.7247 34.5977 71.1982 34.5977C73.365 34.5977 75.4271 33.6173 76.2657 32.2163V34.2473H81.3683V17.0534H76.2657ZM76.2657 27.7869C75.5319 29.0124 73.9941 29.9222 72.2819 29.9222C69.9266 29.9222 68.0179 28.0099 68.0179 25.6506C68.0179 23.2913 69.9266 21.3786 72.2819 21.3786C73.9941 21.3786 75.5319 22.3239 76.2657 23.584V27.7869Z" fill="black"/>
<path d="M11.3784 8.70361C9.72487 8.70361 8.38456 10.0469 8.38456 11.7035C8.38417 12.0971 8.46129 12.4868 8.61154 12.8506C8.76178 13.2143 8.9822 13.5449 9.2602 13.8235C9.53821 14.1021 9.86836 14.3231 10.2318 14.4741C10.5953 14.6251 10.9849 14.703 11.3784 14.7034H14.3728V11.7035C14.3735 10.9086 14.0584 10.1461 13.4969 9.58348C12.9353 9.0209 12.1733 8.70441 11.3784 8.70361V8.70361ZM11.3784 16.7033H3.39427C1.74069 16.7033 0.400391 18.0466 0.400391 19.7037C0.400391 21.3603 1.74069 22.7036 3.39427 22.7036H11.3789C13.032 22.7036 14.3728 21.3603 14.3728 19.7037C14.3728 18.0466 13.032 16.7033 11.3784 16.7033" fill="#36C5F0"/>
<path d="M30.3411 19.7037C30.3411 18.0466 29.0003 16.7033 27.3467 16.7033C25.6931 16.7033 24.3528 18.0466 24.3528 19.7037V22.7036H27.3467C28.1416 22.7028 28.9036 22.3863 29.4651 21.8237C30.0267 21.2612 30.3417 20.4986 30.3411 19.7037V19.7037ZM22.3569 19.7037V11.7035C22.3576 10.9086 22.0425 10.1461 21.4809 9.58348C20.9194 9.0209 20.1574 8.70441 19.3625 8.70361C17.709 8.70361 16.3687 10.0469 16.3687 11.7035V19.7032C16.3687 21.3608 17.709 22.7041 19.3625 22.7041C20.1574 22.7033 20.9194 22.3868 21.4809 21.8242C22.0425 21.2617 22.3576 20.4991 22.3569 19.7042" fill="#2EB67D"/>
<path d="M19.3625 38.7036C20.1574 38.7028 20.9194 38.3863 21.4809 37.8237C22.0425 37.2612 22.3576 36.4986 22.3569 35.7037C22.3576 34.9088 22.0425 34.1463 21.4809 33.5837C20.9194 33.0211 20.1574 32.7046 19.3625 32.7038H16.3687V35.7037C16.3687 37.3603 17.709 38.7036 19.3625 38.7036ZM19.3625 30.7039H27.3472C29.0003 30.7039 30.3411 29.3606 30.3411 27.7035C30.3417 26.9086 30.0267 26.1461 29.4651 25.5835C28.9036 25.0209 28.1416 24.7044 27.3467 24.7036H19.3625C17.709 24.7036 16.3687 26.0469 16.3687 27.7035C16.3683 28.0971 16.4454 28.4868 16.5956 28.8506C16.7459 29.2143 16.9663 29.5449 17.2443 29.8235C17.5223 30.1021 17.8525 30.3231 18.2159 30.4741C18.5793 30.6251 18.969 30.703 19.3625 30.7034" fill="#ECB22E"/>
<path d="M0.399904 27.7035C0.399509 28.0971 0.476634 28.4868 0.626877 28.8506C0.777119 29.2143 0.997537 29.5449 1.27554 29.8235C1.55355 30.1021 1.8837 30.3231 2.24715 30.4741C2.6106 30.6251 3.00022 30.703 3.39378 30.7034C4.18865 30.7026 4.95065 30.3861 5.51219 29.8235C6.07373 29.261 6.38882 28.4984 6.38816 27.7035V24.7036H3.39378C1.74021 24.7036 0.399904 26.0469 0.399904 27.7035V27.7035ZM8.38408 27.7035V35.7032C8.38408 37.3603 9.72438 38.7036 11.378 38.7036C12.1728 38.7028 12.9348 38.3863 13.4964 37.8237C14.0579 37.2612 14.373 36.4986 14.3723 35.7037V27.7035C14.3727 27.3099 14.2956 26.9201 14.1453 26.5563C13.995 26.1925 13.7746 25.8619 13.4965 25.5833C13.2185 25.3048 12.8882 25.0837 12.5247 24.9327C12.1612 24.7818 11.7716 24.7039 11.378 24.7036C9.72438 24.7036 8.38408 26.0469 8.38408 27.7035Z" fill="#E01E5A"/>
</g>
<defs>
<clipPath id="clip0_17_2625">
<rect width="121" height="48" fill="white" transform="translate(0.399902)"/>
</clipPath>
</defs>
</svg>
