<svg width="141" height="43" viewBox="0 0 141 43" fill="none" xmlns="http://www.w3.org/2000/svg">
<path d="M21.2728 0.0791016C9.6749 0.0791016 0.272461 9.48129 0.272461 21.0792C0.272461 32.6777 9.6749 42.0791 21.2728 42.0791C32.872 42.0791 42.2735 32.6777 42.2735 21.0792C42.2735 9.48204 32.872 0.0801046 21.2726 0.0801046L21.2728 0.0791016ZM30.9035 30.3673C30.5273 30.9842 29.7198 31.1798 29.1029 30.8011C24.1723 27.7894 17.9652 27.1073 10.6552 28.7774C9.95075 28.9379 9.24859 28.4966 9.08809 27.7919C8.92685 27.0872 9.36645 26.3851 10.0726 26.2246C18.0722 24.3969 24.9341 25.1839 30.4697 28.5668C31.0865 28.9454 31.2822 29.7504 30.9035 30.3673ZM33.4739 24.6492C32.9999 25.4196 31.9918 25.6628 31.222 25.1889C25.5771 21.7192 16.9724 20.7144 10.2956 22.7411C9.42965 23.0026 8.51508 22.5146 8.25227 21.6502C7.99147 20.7843 8.47972 19.8715 9.34413 19.6082C16.9709 17.2941 26.4523 18.415 32.9347 22.3985C33.7046 22.8725 33.9479 23.8806 33.4739 24.6495V24.6492ZM33.6946 18.6949C26.9262 14.6748 15.7594 14.3051 9.29724 16.2664C8.25954 16.5811 7.16217 15.9953 6.8477 14.9576C6.53323 13.9194 7.11853 12.8228 8.15698 12.5073C15.5751 10.2554 27.9068 10.6905 35.6992 15.3165C36.6346 15.8704 36.9406 17.0759 36.3864 18.008C35.8347 18.9414 34.6259 19.2491 33.6956 18.6949H33.6946ZM57.4076 19.4653C53.7814 18.6006 53.1369 17.9937 53.1369 16.7186C53.1369 15.5139 54.2704 14.7031 55.9581 14.7031C57.5931 14.7031 59.2131 15.3187 60.9133 16.5861C60.9635 16.6245 61.0287 16.6398 61.0914 16.6298C61.1566 16.6203 61.2118 16.5854 61.2494 16.533L63.0198 14.0373C63.0926 13.9345 63.0725 13.7928 62.9747 13.7143C60.951 12.0911 58.674 11.3019 56.0108 11.3019C52.0962 11.3019 49.3603 13.6514 49.3603 17.013C49.3603 20.6178 51.7201 21.8942 55.7976 22.8795C59.2658 23.6787 59.8526 24.3483 59.8526 25.545C59.8526 26.8716 58.6689 27.6966 56.7631 27.6966C54.6466 27.6966 52.9187 26.9819 50.9878 25.3118C50.9402 25.2691 50.875 25.2516 50.8148 25.2541C50.7496 25.2591 50.6919 25.2892 50.6518 25.3368L48.6657 27.6991C48.5829 27.7994 48.5929 27.9449 48.6882 28.0301C50.9351 30.0363 53.6986 31.0945 56.6828 31.0945C60.9008 31.0945 63.6267 28.79 63.6267 25.2215C63.6342 22.2105 61.8312 20.5428 57.4151 19.4685L57.4076 19.4653ZM73.1711 15.8893C71.343 15.8893 69.8433 16.6095 68.6045 18.0853V16.4242C68.6045 16.293 68.4992 16.1862 68.3688 16.1862H65.1213C64.9909 16.1862 64.8856 16.293 64.8856 16.4242V34.8812C64.8856 35.0116 64.9909 35.1194 65.1213 35.1194H68.3688C68.4992 35.1194 68.6045 35.0116 68.6045 34.8812V29.0558C69.8433 30.4425 71.343 31.1221 73.1711 31.1221C76.569 31.1221 80.0096 28.5066 80.0096 23.5064C80.0146 18.5053 76.5741 15.889 73.1736 15.889L73.1711 15.8893ZM76.233 23.5064C76.233 26.0515 74.6657 27.8295 72.4188 27.8295C70.1994 27.8295 68.5243 25.9713 68.5243 23.5064C68.5243 21.0414 70.1994 19.1836 72.4188 19.1836C74.6281 19.1834 76.233 21.001 76.233 23.5062V23.5064ZM88.8243 15.8893C84.4483 15.8893 81.0202 19.2586 81.0202 23.5609C81.0202 27.817 84.4257 31.1497 88.7716 31.1497C93.1626 31.1497 96.6007 27.7919 96.6007 23.5064C96.6007 19.2356 93.1852 15.8898 88.8243 15.8898V15.8893ZM88.8243 27.8546C86.4971 27.8546 84.7417 25.9838 84.7417 23.5052C84.7417 21.0153 86.4369 19.2085 88.7716 19.2085C91.1138 19.2085 92.8792 21.0785 92.8792 23.5596C92.8792 26.049 91.174 27.8546 88.8243 27.8546ZM105.944 16.1862H102.371V12.5334C102.371 12.4025 102.266 12.2957 102.135 12.2957H98.8877C98.7573 12.2957 98.6495 12.4025 98.6495 12.5334V16.1862H97.0897C96.9593 16.1862 96.854 16.293 96.854 16.4242V19.2145C96.854 19.3454 96.9593 19.4525 97.0897 19.4525H98.6495V26.6734C98.6495 29.5899 100.101 31.0695 102.968 31.0695C104.131 31.0695 105.097 30.8287 106.007 30.3121C106.082 30.272 106.128 30.1918 106.128 30.1065V27.4483C106.128 27.3681 106.085 27.2903 106.015 27.2477C105.944 27.2026 105.857 27.2001 105.784 27.2377C105.16 27.5511 104.555 27.6966 103.878 27.6966C102.837 27.6966 102.371 27.2226 102.371 26.1644V19.4537H105.944C106.075 19.4537 106.18 19.3469 106.18 19.2157V16.4257C106.185 16.2945 106.08 16.1877 105.947 16.1877L105.944 16.1862ZM118.393 16.2005V15.7518C118.393 14.432 118.899 13.8435 120.033 13.8435C120.71 13.8435 121.254 13.9779 121.863 14.181C121.939 14.2046 122.016 14.1928 122.077 14.1479C122.139 14.103 122.174 14.031 122.174 13.9548V11.2189C122.174 11.1143 122.109 11.0218 122.006 10.9909C121.364 10.7996 120.542 10.6032 119.308 10.6032C116.311 10.6032 114.724 12.2919 114.724 15.485V16.1721H113.164C113.034 16.1721 112.926 16.279 112.926 16.4099V19.2145C112.926 19.3454 113.034 19.4525 113.164 19.4525H114.724V30.588C114.724 30.7209 114.832 30.8262 114.962 30.8262H118.207C118.34 30.8262 118.445 30.7209 118.445 30.588V19.4532H121.477L126.122 30.588C125.595 31.7566 125.076 31.9898 124.369 31.9898C123.797 31.9898 123.193 31.8193 122.578 31.4807C122.52 31.4506 122.45 31.4456 122.39 31.4632C122.327 31.4858 122.275 31.5309 122.25 31.5911L121.149 34.006C121.096 34.1214 121.141 34.2543 121.252 34.3145C122.4 34.9364 123.436 35.2022 124.717 35.2022C127.115 35.2022 128.441 34.0837 129.607 31.0795L135.24 16.5255C135.27 16.4522 135.26 16.3695 135.215 16.3045C135.172 16.2401 135.099 16.2012 135.021 16.2012H131.641C131.538 16.2012 131.448 16.2657 131.415 16.3607L127.952 26.2496L124.161 16.3542C124.125 16.2622 124.038 16.2012 123.94 16.2012H118.393V16.2005ZM111.176 16.1862H107.928C107.798 16.1862 107.69 16.293 107.69 16.4242V30.588C107.69 30.7209 107.798 30.8262 107.928 30.8262H111.176C111.306 30.8262 111.414 30.7209 111.414 30.588V16.4252C111.414 16.294 111.308 16.1872 111.176 16.1872V16.1862ZM109.571 9.73657C108.284 9.73657 107.241 10.7778 107.241 12.064C107.241 13.3509 108.284 14.3934 109.571 14.3934C110.857 14.3934 111.898 13.3509 111.898 12.064C111.898 10.778 110.855 9.73657 109.571 9.73657ZM138.013 20.7404C136.729 20.7404 135.729 19.7085 135.729 18.4554C135.729 17.2023 136.742 16.1586 138.026 16.1586C139.31 16.1586 140.31 17.1903 140.31 18.4424C140.31 19.6955 139.297 20.7404 138.013 20.7404ZM138.026 16.3858C136.855 16.3858 135.969 17.3161 135.969 18.4554C135.969 19.5942 136.85 20.512 138.013 20.512C139.184 20.512 140.069 19.5824 140.069 18.4424C140.069 17.3036 139.189 16.3858 138.026 16.3858ZM138.532 18.6773L139.179 19.5821H138.633L138.051 18.7521H137.552V19.5821H137.095V17.1837H138.164C138.723 17.1837 139.089 17.4689 139.089 17.9488C139.091 18.3421 138.863 18.5823 138.535 18.6773H138.532ZM138.146 17.5953H137.552V18.3538H138.146C138.442 18.3538 138.62 18.2086 138.62 17.9742C138.62 17.7274 138.442 17.5953 138.146 17.5953Z" fill="#1ED760"/>
</svg>
