<svg width="117" height="48" viewBox="0 0 117 48" fill="none" xmlns="http://www.w3.org/2000/svg">
<g clip-path="url(#clip0_17_2627)">
<path d="M38.0462 21.4076C38.0462 19.346 35.9846 17.1469 32.5486 17.1469C28.7003 17.1469 24.3022 20.0332 23.615 25.8057C22.9278 31.5782 26.5012 34.1896 30.2121 34.1896C33.923 34.1896 35.7098 32.8152 37.6339 30.891C35.9846 28.8294 33.7856 29.7915 33.3733 29.9289C32.9609 30.2038 32.2737 30.4787 31.1742 30.4787C29.7998 30.4787 28.288 29.7915 28.288 27.1801C37.359 26.218 38.0462 23.4692 38.0462 21.4076ZM33.6481 21.6825C33.6481 22.3697 33.3733 23.4692 28.8377 24.019C29.7998 20.5829 31.5865 20.3081 32.4112 20.3081C33.2358 20.4455 33.6481 20.9953 33.6481 21.6825ZM18.3922 22.2322C18.3922 22.2322 16.4681 28.2796 16.3306 28.8294C16.3306 28.2796 14.8188 17.4218 14.8188 17.4218C11.5202 17.4218 9.73345 19.7583 8.90881 22.2322C8.90881 22.2322 6.57232 28.2796 6.43488 28.8294C6.29743 28.4171 6.02255 22.3697 6.02255 22.3697C5.74767 19.346 2.99886 17.4218 0.799805 17.4218L3.54862 33.9147C6.98464 33.9147 8.90881 31.5782 9.87089 29.1043C9.87089 29.1043 11.9325 23.7441 12.0699 23.4692C12.0699 23.7441 13.5818 33.9147 13.5818 33.9147C17.0178 33.9147 18.942 31.7156 19.9041 29.3791L24.7145 17.4218C21.141 17.4218 19.3543 19.7583 18.3922 22.2322ZM50.8282 17.0095C48.7666 17.0095 47.1173 18.109 45.7429 19.8957L46.8425 10C43.9562 10 41.7571 12.4739 41.2074 16.0474L39.0083 33.7772C40.6576 33.7772 42.3069 33.3649 43.269 32.128C44.0936 33.2275 45.3306 34.0521 47.1173 34.0521C51.9278 34.0521 55.2263 28.5545 55.2263 23.3318C55.3638 18.5213 53.0273 17.0095 50.8282 17.0095ZM50.2785 25.5308C49.7287 28.4171 48.2169 30.3412 46.5676 30.3412C45.0557 30.3412 44.3685 29.654 44.3685 29.654C44.6434 27.1801 44.9183 25.5308 45.468 24.1564C46.0178 22.782 47.3922 20.7204 48.7666 20.7204C50.141 20.8578 50.8282 22.6446 50.2785 25.5308ZM67.3211 17.4218H64.0225V17.2844C64.2974 15.0853 64.7098 13.9858 66.4965 13.8483C67.596 13.7109 68.1458 13.1611 68.2832 12.4739C68.4207 11.9242 68.6955 10.1374 68.6955 10.1374C61.9609 10.1374 59.8993 13.0237 59.3496 17.4218V17.5592H59.2121C58.1126 17.5592 56.8756 18.7962 56.7382 20.3081L56.6007 20.8578H58.7998L56.8756 36.2512L56.3259 39C56.4633 39 56.4633 39 56.6007 39C59.7619 38.8626 61.6861 36.3886 62.2358 32.8152L63.7477 20.7204H64.8472C65.8093 20.7204 67.0463 19.7583 67.3211 17.9716V17.4218ZM84.6387 17.1469C80.7903 17.1469 77.2169 20.0332 76.1173 24.4313C75.0178 28.8294 76.6671 34.1896 82.3022 34.1896C87.9372 34.1896 91.2358 28.6919 91.2358 24.1564C91.0984 19.6209 88.0747 17.1469 84.6387 17.1469ZM86.1505 25.3934C86.0131 27.455 85.051 30.4787 82.577 30.4787C80.1031 30.4787 80.5154 26.9052 80.6529 25.2559C80.9278 23.4692 81.8898 20.8578 84.0889 20.8578C86.1505 20.8578 86.4254 23.1943 86.1505 25.3934ZM110.203 22.2322C110.203 22.2322 108.278 28.2796 108.141 28.8294C108.141 28.2796 106.629 17.4218 106.629 17.4218C103.331 17.4218 101.544 19.7583 100.719 22.2322C100.719 22.2322 98.3827 28.2796 98.2453 28.8294C98.2453 28.4171 97.833 22.3697 97.833 22.3697C97.6955 19.346 94.8093 17.5592 92.6102 17.5592L95.3591 34.0521C98.7951 34.0521 100.719 31.7156 101.681 29.2417C101.681 29.2417 103.743 23.8815 103.88 23.6066C103.88 23.8815 105.392 34.0521 105.392 34.0521C108.828 34.0521 110.752 31.8531 111.714 29.5166L116.25 17.4218C112.814 17.4218 111.027 19.7583 110.203 22.2322ZM70.4823 10.1374L67.7335 32.6777L67.1837 35.4265C67.3211 35.4265 67.3211 35.4265 67.4586 35.4265C70.4823 35.4265 72.6813 32.6777 72.9562 29.3791L74.6055 16.4597C75.0178 12.6114 72.5439 10.1374 70.4823 10.1374Z" fill="#1B1B1B"/>
</g>
<defs>
<clipPath id="clip0_17_2627">
<rect width="116" height="48" fill="white" transform="translate(0.799805)"/>
</clipPath>
</defs>
</svg>
