<svg width="22" height="20" viewBox="0 0 22 20" fill="none" xmlns="http://www.w3.org/2000/svg">
<path d="M19.1999 0.599878H10.5332C9.42863 0.599878 8.5332 1.49531 8.5332 2.59988V5.26655H11.1999H2.5332C1.39987 5.26655 0.533203 6.13321 0.533203 7.26655V14.5999C0.533203 15.7332 1.39987 16.5999 2.5332 16.5999H3.19987V19.9999L7.39987 16.5999H9.86654C10.9711 16.5999 11.8665 15.7044 11.8665 14.5999V11.9332H19.1999C20.3332 11.9332 21.1999 11.0665 21.1999 9.93321V2.59988C21.1999 1.46654 20.3332 0.599878 19.1999 0.599878ZM7.7332 13.8665L7.39987 12.7999H5.3332L4.9332 13.8665H3.3332L5.5332 7.93321H7.1332L9.3332 13.8665H7.7332ZM17.8665 8.59988V9.93321C16.9999 9.93321 16.0665 9.66654 15.2665 9.26655C14.4665 9.66654 13.5332 9.86655 12.5999 9.93321L12.5332 8.59988C12.9999 8.59988 13.4665 8.53321 13.9332 8.39988C13.3332 7.79988 12.9332 7.06655 12.7332 6.26655H14.1332C14.3332 6.86655 14.7332 7.33321 15.1999 7.73321C15.9332 7.13321 16.3999 6.26655 16.4665 5.26655H12.4665V3.93321H14.4665V2.59988H15.7999V3.93321H17.9999L18.0665 4.59988C18.1332 5.99988 17.5999 7.39988 16.5999 8.39988C17.0665 8.53321 17.4665 8.59988 17.8665 8.59988Z" fill="#64748B"/>
</svg>
